<svg xmlns="http://www.w3.org/2000/svg" version="1.1" xmlns:xlink="http://www.w3.org/1999/xlink" xmlns:svgjs="http://svgjs.dev/svgjs" viewBox="0 0 800 800"><defs><linearGradient x1="50%" y1="0%" x2="50%" y2="100%" id="uundulate-grad"><stop stop-color="hsl(2, 100%, 47%)" stop-opacity="1" offset="45%"></stop><stop stop-color="hsl(8, 72%, 27%)" stop-opacity="1" offset="100%"></stop></linearGradient></defs><g stroke-width="7" stroke="hsl(10, 99%, 58%)" fill="none"><path d="M1497.5378940659066 151.85672472121826C1547.7805005068308 460.37901867366645 1302.6867238197929 1040.7127057209693 844.4548639926886 1140.870761666867C386.22300416558414 1241.028817612765 -651.7324266632728 941.1376872139754 -701.9750331041971 632.6153932615275C-752.2176395451214 324.0930993090792 145.0584932491488 -239.87819335898405 603.2903530762528 -340.03624930488195C1061.5222129033573 -440.19430525077985 1447.295287624982 -156.66556923122994 1497.5378940659066 151.85672472121826C1547.7805005068308 460.37901867366645 1302.6867238197929 1040.7127057209693 844.4548639926886 1140.870761666867 "></path><path d="M1451.8071802689706 162.1959630079806C1499.9563447748565 457.8631613790767 1265.0748087831116 1014.016278132742 825.9359431154703 1110.0010817475606C386.79707744782877 1205.9858853623796 -607.9102104298258 918.5902187302061 -656.0593749357117 622.9230203591101C-704.2085394415974 327.25582198801385 155.68108781957812 -213.2166668188799 594.8199534872197 -309.2014704336987C1033.958819154861 -405.18627404851753 1403.6580157630851 -133.4712353631155 1451.8071802689706 162.1959630079806C1499.9563447748565 457.8631613790767 1265.0748087831116 1014.016278132742 825.9359431154703 1110.0010817475606 "></path><path d="M1406.076344401723 172.53535388263367C1452.13206697257 455.3474566723778 1227.4627716761188 987.3200031324054 807.4169001679395 1079.131554416145C387.3710286597609 1170.9431056998847 -564.0881162666915 896.0429028343278 -610.1438388375387 613.2308000445837C-656.199561408386 330.41869725483946 166.30356031969495 -186.55498769088513 586.3494318278738 -278.36653897462486C1006.3953033360526 -370.1780902583646 1360.0206218308754 -110.27674890711057 1406.076344401723 172.53535388263367C1452.13206697257 455.3474566723778 1227.4627716761188 987.3200031324054 807.4169001679395 1079.131554416145 "></path><path d="M1360.3456306047874 182.874592169396C1404.3079112405958 452.8315993777883 1189.8508566394376 960.6235755441783 788.8979792907214 1048.2618744968388C387.9451019420053 1135.9001734494996 -520.2659000332446 873.4954343505588 -564.2281806690532 603.5384271421665C-608.1904613048621 333.5814199337743 176.92615489012428 -159.89346115078092 577.8790322388404 -247.53176010344163C978.8319095875568 -335.1700590561023 1316.383349968978 -87.08241503899615 1360.3456306047874 182.874592169396C1404.3079112405958 452.8315993777883 1189.8508566394376 960.6235755441783 788.8979792907214 1048.2618744968388 "></path><path d="M1314.6148862902737 193.2138914913146C1356.4837249910438 450.3158031183548 1152.2389110851786 933.9272089911074 770.3790278959252 1017.3922556126888C388.5191447066718 1100.8573022342705 -476.4437143173758 850.9480269019457 -518.312553018146 593.8461152749055C-560.1813917189163 336.74420364786545 187.54871894297548 -133.23187357552052 569.4086021322291 -216.69692019710214C951.2684853214826 -300.1619668186837 1272.7460475895032 -63.88802013572547 1314.6148862902737 193.2138914913146C1356.4837249910438 450.3158031183548 1152.2389110851786 933.9272089911074 770.3790278959252 1017.3922556126888 "></path><path d="M1268.88414197576 203.55325184838955C1308.6595387414918 447.80006789407764 1114.6269655309197 907.2309034731925 751.860076501129 986.5226977636949C389.0931874713383 1065.8144920541972 -432.621528601507 828.4006804884889 -472.39692536723874 584.1538644428008C-512.1723221329705 339.9070483971127 198.1712829958267 -106.57022496510388 560.9381720256176 -185.8620192556064C923.7050610554084 -265.1538135461089 1229.108745210028 -40.693564197298656 1268.88414197576 203.55325184838955C1308.6595387414918 447.80006789407764 1114.6269655309197 907.2309034731925 751.860076501129 986.5226977636949 "></path><path d="M1223.1534281788242 213.89258168788638C1260.8353830095177 445.2843021522225 1077.015050494239 880.5345674376995 733.3411556239109 955.653109397123C389.66726075358247 1030.7716513565465 -388.7993123680601 805.8533035574542 -426.4812671987533 574.461583093118C-464.1632220294465 343.06986262878195 208.79387756625601 -79.90860687226541 552.4677724365843 -155.0271488316888C896.1416673069125 -230.1456907911122 1185.4714733481312 -17.499138776449854 1223.1534281788242 213.89258168788638C1260.8353830095177 445.2843021522225 1077.015050494239 880.5345674376995 733.3411556239109 955.653109397123 "></path><path d="M1177.4226228291543 224.23188100980497C1213.011135724809 442.7685058927891 1039.4030439048238 853.8382008846286 714.8221431939583 924.783490512973C390.2412424830927 995.7287801413174 -344.9771876873475 783.3058961088414 -380.56570058300224 564.7692712258572C-416.15421347865697 346.23264634287307 219.41638058395108 -53.247019297004954 543.9972812948165 -124.19230892534932C868.578182005682 -195.1375985536937 1141.8341099334998 5.695256126820823 1177.4226228291543 224.23188100980497C1213.011135724809 442.7685058927891 1039.4030439048238 853.8382008846286 714.8221431939583 924.783490512973 "></path><path d="M1131.6919090322187 234.57118033172367C1165.186979992835 440.2527096333557 1001.791128868143 827.1418343315577 696.3032223167402 893.913871628823C390.81531576533735 960.6859089260881 -301.1549714539006 760.7584886602285 -334.6500424145168 555.0769593585965C-368.145113375133 349.3954300569642 230.0389751543804 -26.585431721744555 535.5268817057831 -93.35746901900984C841.014788257186 -160.12950631627513 1098.1968380716028 28.8896510300915 1131.6919090322187 234.57118033172367C1165.186979992835 440.2527096333557 1001.791128868143 827.1418343315577 696.3032223167402 893.913871628823 "></path><path d="M1085.9611952352834 244.91047965364214C1117.362824260861 437.73691337392233 964.1792138314622 800.4454677784865 677.7843014395221 863.0442527446728C391.389389047582 925.6430377108588 -257.3327552204537 738.2110812116155 -288.73438424603137 545.3846474913354C-320.1360132716091 352.5582137710553 240.66156972480974 0.07615585351584286 527.05648211675 -62.52262911267036C813.4513945086901 -125.12141407885656 1054.5595662097055 52.08404593336212 1085.9611952352834 244.91047965364214C1117.362824260861 437.73691337392233 964.1792138314622 800.4454677784865 677.7843014395221 863.0442527446728 "></path><path d="M1040.2304204031916 255.24977897556096C1069.5386074937305 435.22111711448906 926.5672377596252 773.7491012254156 659.2653195271478 832.1746338605226C391.96340129467023 890.6001664956298 -213.51060002216303 715.6636737630029 -242.81878711270224 535.6923356240745C-272.1269742032414 355.7209974851464 251.28410326008282 26.73774342877624 518.5860214925601 -31.687789206330876C785.8879397250378 -90.113321841438 1010.9222333126522 75.2784408366328 1040.2304204031916 255.24977897556096C1069.5386074937305 435.22111711448906 926.5672377596252 773.7491012254156 659.2653195271478 832.1746338605226 "></path><path d="M994.4996455710998 265.58907829747955C1021.7143907266004 432.70532085505556 888.9552616877882 747.0527346723447 640.7463376147734 801.3050149763726C392.5374135417585 855.5572952804007 -169.68844482387237 693.1162663143896 -196.90318997937305 526.0000237568136C-224.11793513487373 358.88378119923755 261.906636795356 53.39933100403664 510.1155608683707 -0.8529492999913941C758.3244849413854 -55.10522960401943 967.2849004155992 98.47283573990342 994.4996455710998 265.58907829747955C1021.7143907266004 432.70532085505556 888.9552616877882 747.0527346723447 640.7463376147734 801.3050149763726 "></path><path d="M948.7689317741642 275.9283165842419C973.8902349946263 430.18946356046604 851.3433466511074 720.3563070841174 622.2274167375554 770.4353350570664C393.111486824003 820.5143630300154 -125.86622859042546 670.5687978306205 -150.98753181088762 516.3076508543966C-176.10883503134977 362.0465038781724 272.52923136578534 80.06085754414079 501.64516127933734 29.981829571191838C730.7610911928896 -20.09719840175711 923.6476285537019 121.66716960801784 948.7689317741642 275.9283165842419C973.8902349946263 430.18946356046604 851.3433466511074 720.3563070841174 622.2274167375554 770.4353350570664 "></path><path d="M903.0381569420724 286.2676159061606C926.066018227496 427.67366730103265 813.7313705792703 693.6599405310465 603.7084348251806 739.5657161729164C393.6854990710914 785.4714918147861 -82.0440733921348 648.0213903820077 -105.07193467755843 506.6153389871356C-128.09979596298206 365.20928759226354 283.1517649010584 106.72244511940119 493.17470065514783 60.81666947753132C703.1976364092372 14.910893835661454 880.0102956566486 144.86156451128846 903.0381569420724 286.2676159061606C926.066018227496 427.67366730103265 813.7313705792703 693.6599405310465 603.7084348251806 739.5657161729164 "></path><path d="M857.3074126275587 296.6069762632354C878.2418319779438 425.1579320767555 776.1194250250112 666.9636350131318 585.1894834303845 708.6961583239225C394.2595418357578 750.4286816347135 -38.22188767626602 625.474043968551 -59.15630702665112 496.9230881550309C-80.09072637703628 368.3721323415109 293.7743289539096 133.38409372981783 484.70427054853644 91.65157041902705C675.634212143163 49.91904710823627 836.3729932771735 168.0560204497154 857.3074126275587 296.6069762632354C878.2418319779438 425.1579320767555 776.1194250250112 666.9636350131318 585.1894834303845 708.6961583239225 "></path><path d="M811.5766988306232 306.9462755851541C830.4176762459697 422.64213581732224 738.5075099883304 640.2672684600607 566.6705625531664 677.8265394397724C394.8336151180022 715.3858104194842 5.600328557180887 602.926636519938 -13.240648858165684 487.2307762877699C-32.08162627351231 371.5349160556019 304.39692352433894 160.04568130507823 476.23387095950307 122.48641032536653C648.0708183946672 84.92713934565484 792.7357214152767 191.250415352986 811.5766988306232 306.9462755851541C830.4176762459697 422.64213581732224 738.5075099883304 640.2672684600607 566.6705625531664 677.8265394397724 "></path><path d="M765.8459239985314 317.28555964828365C782.5934594788393 420.1263242990997 700.8955339164934 613.5708866482007 548.151580640792 646.9569052968334C395.40762736509055 680.3429239454659 49.422483755471546 580.3792138125361 32.674948275163445 477.5384491617201C15.927412794855343 374.69768451090397 315.019457059612 186.70725362154963 467.76341033531344 153.32123497291695C620.5073636110149 119.93521632428434 749.0983885182231 214.44479499746762 765.8459239985314 317.28555964828365C782.5934594788393 420.1263242990997 700.8955339164934 613.5708866482007 548.151580640792 646.9569052968334 "></path><path d="M720.1152102015958 327.6248742289914C734.7693037468653 417.61054329845547 663.2836188798126 586.8745353539188 529.6326597635739 616.0873016714722C395.9817006473352 645.3000679890258 93.24469998891846 557.8318216227124 78.59060644364888 467.8461525532482C63.936512898379306 377.86048348378415 325.64205163004135 213.36885645559903 459.29301074628006 184.1560901380455C592.9439698625189 154.94332382049197 705.4611166563261 237.63920515952736 720.1152102015958 327.6248742289914C734.7693037468653 417.61054329845547 663.2836188798126 586.8745353539188 529.6326597635739 616.0873016714722 "></path><path d="M674.3844964046602 337.96417355091C686.9451480148913 415.0947470390221 625.6717038431318 560.1781688008477 511.1137388863558 585.2176827873222C396.5557739295796 610.2571967737967 137.06691622236542 535.2844141740993 124.50626461213432 458.15384068598735C111.94561300190321 381.02326719787527 336.2646462004708 240.03044403085948 450.8226111572468 214.99093004438498C565.3805761140229 189.95141605791054 661.8238447944291 260.833600062798 674.3844964046602 337.96417355091C686.9451480148913 415.0947470390221 625.6717038431318 560.1781688008477 511.1137388863558 585.2176827873222 "></path><path d="M628.6536910549903 348.30347287282865C639.1209007301828 412.5789507795887 588.0596972537165 533.4818022477768 492.5947264564031 554.3480639031723C397.1297556590898 575.2143255585677 180.88904090307796 512.7370067254865 170.42183122788538 448.4615288187264C159.9546215526928 384.1860509119664 346.88714921816575 266.6920316061199 442.35212001547916 245.82576995072446C537.8170908127925 224.95950829532904 618.1864813797977 284.0279949660686 628.6536910549903 348.30347287282865C639.1209007301828 412.5789507795887 588.0596972537165 533.4818022477768 492.5947264564031 554.3480639031723 "></path><path d="M582.9229925168438 358.64278745353636C591.2967602569978 410.06316977894437 550.4477974758248 506.7854509534949 474.0758208379741 523.4784602778112C397.7038442001234 540.1714696021274 224.71127239531393 490.1896145356626 216.33750465515988 438.7692322102546C207.96373691500582 387.3488498848465 357.50975904738414 293.35363444016934 433.88173568523484 276.660625115853C510.25371232308555 259.9676157915367 574.5492247766897 307.22240512812834 582.9229925168438 358.64278745353636C591.2967602569978 410.06316977894437 550.4477974758248 506.7854509534949 474.0758208379741 523.4784602778112 "></path><path d="M537.192217684752 368.982086775455C543.4725434898676 407.54737351951104 512.8358214039878 480.08908440042387 455.5568389255998 492.6088413936611C398.27785644721166 505.1285983868984 268.5334275936046 467.64220708704966 262.25310178848906 429.0769203429937C255.97277598337348 390.51163359893764 368.13229258265727 320.01522201542974 425.4112750610453 307.4954650221925C482.69025753943333 294.97570802895524 530.9118918796364 330.41680003139896 537.192217684752 368.982086775455C543.4725434898676 407.54737351951104 512.8358214039878 480.08908440042387 455.5568389255998 492.6088413936611 "></path><path d="M491.4614886290274 379.32138609737365C495.6483724991044 405.03157726007765 475.2238911085179 453.3927178473529 437.0379027895925 461.7392225095111C398.85191447066717 470.0857271716692 312.35562856826243 445.09479963843677 308.1687446981854 419.38460847573276C303.9818608281084 393.67441731302875 378.75487189429754 346.67680959069014 416.9408602132229 338.330304928532C455.12684853214824 329.9838002663738 487.2746047589503 353.61119493466964 491.4614886290274 379.32138609737365C495.6483724991044 405.03157726007765 475.2238911085179 453.3927178473529 437.0379027895925 461.7392225095111 "></path><path d="M445.7307290557246 389.66070067808135C447.82417099076315 402.5157962594334 437.61193029546985 426.69636655307096 418.5189361360072 430.86961888415004C399.42594197654455 435.0428712152291 356.17779902534215 422.54740744861294 354.0843570903036 409.6923118672609C351.9909151552651 396.8372162859089 389.37742068835973 373.3384124247396 408.4704148478224 369.1651600936605C427.56340900728503 364.99190776258143 443.6372871206861 376.8056050967293 445.7307290557246 389.66070067808135C447.82417099076315 402.5157962594334 437.61193029546985 426.69636655307096 418.5189361360072 430.86961888415004 "></path></g></svg>