<svg xmlns="http://www.w3.org/2000/svg" version="1.1" xmlns:xlink="http://www.w3.org/1999/xlink" xmlns:svgjs="http://svgjs.com/svgjs" width="1440" height="1080" preserveAspectRatio="none" viewBox="0 0 1440 1080"><g mask="url(&quot;#SvgjsMask1036&quot;)" fill="none"><rect width="1440" height="1080" x="0" y="0" fill="rgba(249, 249, 249, 1)"></rect><path d="M -81.18732061961475,151 C -57.19,289 -9.19,777.4 38.81267938038525,841 C 86.81,904.6 110.81,436.4 158.81267938038525,469 C 206.81,501.6 230.81,1071 278.81267938038525,1004 C 326.81,937 350.81,173.4 398.81267938038525,134 C 446.81,94.6 470.81,735.6 518.8126793803852,807 C 566.81,878.4 590.81,482.6 638.8126793803852,491 C 686.81,499.4 710.81,866.6 758.8126793803852,849 C 806.81,831.4 830.81,418.2 878.8126793803852,403 C 926.81,387.8 950.81,777.2 998.8126793803852,773 C 1046.81,768.8 1070.81,346.8 1118.8126793803854,382 C 1166.81,417.2 1190.81,976 1238.8126793803854,949 C 1286.81,922 1310.81,268 1358.8126793803854,247 C 1406.81,226 1462.58,853.4 1478.8126793803854,844 C 1495.05,834.6 1447.76,328.8 1440,200" stroke="rgba(241, 7, 7, 1)" stroke-width="2"></path><path d="M -219.4039864920838,924 C -195.4,803.8 -147.4,358.8 -99.4039864920838,323 C -51.4,287.2 -27.4,785.8 20.596013507916197,745 C 68.6,704.2 92.6,141.6 140.5960135079162,119 C 188.6,96.4 212.6,560.8 260.5960135079162,632 C 308.6,703.2 332.6,415 380.5960135079162,475 C 428.6,535 452.6,927 500.5960135079162,932 C 548.6,937 572.6,577.4 620.5960135079162,500 C 668.6,422.6 692.6,595.4 740.5960135079162,545 C 788.6,494.6 812.6,176.6 860.5960135079162,248 C 908.6,319.4 932.6,930.6 980.5960135079162,902 C 1028.6,873.4 1052.6,108.2 1100.5960135079163,105 C 1148.6,101.8 1172.6,878.2 1220.5960135079163,886 C 1268.6,893.8 1296.72,153.6 1340.5960135079163,144 C 1384.48,134.4 1420.12,699.2 1440,838" stroke="rgba(241, 7, 7, 1)" stroke-width="2"></path><path d="M -146.62126771340846,964 C -122.62,844 -74.62,447.8 -26.62126771340846,364 C 21.38,280.2 45.38,529.4 93.37873228659154,545 C 141.38,560.6 165.38,386 213.37873228659154,442 C 261.38,498 285.38,824.8 333.3787322865915,825 C 381.38,825.2 405.38,472.8 453.3787322865915,443 C 501.38,413.2 525.38,705.6 573.3787322865916,676 C 621.38,646.4 645.38,263.2 693.3787322865916,295 C 741.38,326.8 765.38,862.4 813.3787322865916,835 C 861.38,807.6 885.38,148.6 933.3787322865916,158 C 981.38,167.4 1005.38,887.8 1053.3787322865915,882 C 1101.38,876.2 1125.38,114 1173.3787322865915,129 C 1221.38,144 1245.38,965.6 1293.3787322865915,957 C 1341.38,948.4 1384.05,82 1413.3787322865915,86 C 1442.7,90 1434.68,798.8 1440,977" stroke="rgba(241, 7, 7, 1)" stroke-width="2"></path><path d="M -31.171370767046525,949 C -7.17,820.2 40.83,300 88.82862923295347,305 C 136.83,310 160.83,984.6 208.82862923295346,974 C 256.83,963.4 280.83,329.6 328.82862923295346,252 C 376.83,174.4 400.83,622 448.82862923295346,586 C 496.83,550 520.83,69.4 568.8286292329535,72 C 616.83,74.6 640.83,555.2 688.8286292329535,599 C 736.83,642.8 760.83,251.2 808.8286292329535,291 C 856.83,330.8 880.83,790 928.8286292329535,798 C 976.83,806 1000.83,377 1048.8286292329535,331 C 1096.83,285 1120.83,604.6 1168.8286292329535,568 C 1216.83,531.4 1240.83,71.8 1288.8286292329535,148 C 1336.83,224.2 1360.83,902.4 1408.8286292329535,949 C 1456.83,995.6 1522.59,451.6 1528.8286292329535,381 C 1535.06,310.4 1457.77,553 1440,596" stroke="rgba(241, 7, 7, 1)" stroke-width="2"></path><path d="M -90.85908268554095,436 C -66.86,546.2 -18.86,1054.2 29.140917314459045,987 C 77.14,919.8 101.14,176.6 149.14091731445905,100 C 197.14,23.4 221.14,597.8 269.14091731445905,604 C 317.14,610.2 341.14,120 389.14091731445905,131 C 437.14,142 461.14,578.4 509.14091731445905,659 C 557.14,739.6 581.14,468 629.1409173144591,534 C 677.14,600 701.14,1036.4 749.1409173144591,989 C 797.14,941.6 821.14,359.2 869.1409173144591,297 C 917.14,234.8 941.14,632.6 989.1409173144591,678 C 1037.14,723.4 1061.14,515.2 1109.140917314459,524 C 1157.14,532.8 1181.14,755.4 1229.140917314459,722 C 1277.14,688.6 1301.14,378 1349.140917314459,357 C 1397.14,336 1450.97,616.4 1469.140917314459,617 C 1487.31,617.6 1445.83,411.4 1440,360" stroke="rgba(241, 7, 7, 1)" stroke-width="2"></path></g><defs><mask id="SvgjsMask1036"><rect width="1440" height="1080" fill="#ffffff"></rect></mask></defs></svg>